<svg xmlns="http://www.w3.org/2000/svg" xmlns:xlink="http://www.w3.org/1999/xlink" viewBox="0,0,256,256" width="48px" height="48px"><g fill="none" fill-rule="nonzero" stroke="none" stroke-width="none" stroke-linecap="none" stroke-linejoin="none" stroke-miterlimit="10" stroke-dasharray="" stroke-dashoffset="0" font-family="none" font-weight="none" font-size="none" text-anchor="none" style="mix-blend-mode: normal"><g transform="scale(5.33333,5.33333)"><path d="M44.7,10.3c-0.3,-0.3 -0.7,-0.4 -1.1,-0.2l-0.2,0.1c-0.1,0.1 -0.3,0.1 -0.4,0.2c0.4,-0.6 0.7,-1.3 1,-2.1c0.1,-0.4 0,-0.8 -0.3,-1.1c-0.3,-0.3 -0.8,-0.3 -1.1,-0.1c-1.6,1 -3.1,1.6 -4.7,1.9l-0.9,0.2c2.1,1.5 3.5,4 3.5,6.8c0,0.1 0,0.3 0,0.4l0.1,-0.1c3.1,-2.6 4.2,-4.7 4.3,-4.8c0.2,-0.4 0.1,-0.9 -0.2,-1.2z" fill="#ffffff" stroke="none" stroke-width="1" stroke-linecap="butt" stroke-linejoin="miter"></path><path d="M16.5,33.5c0,0 -3.5,3 -12,3c0,0 3.5,4 13,4c6.6,0 11.6,-2.5 15.2,-6" fill="none" stroke="#ffffff" stroke-width="3" stroke-linecap="round" stroke-linejoin="round"></path><path d="M12.9,14.1c-3.7,-2.5 -4.9,-5.6 -4.9,-5.6c0,0 -1.5,2 -1.5,5c0,5 4,7 4,7c-3,0 -5,-1 -5,-1c0,0 0.5,5.5 7,8l-4,1c0,0 2,3.5 8,5" fill="none" stroke="#ffffff" stroke-width="3" stroke-linecap="round" stroke-linejoin="round"></path><path d="M37,28.8c2.4,-4.3 3.5,-9.1 3.5,-12.8c0,-4.7 -3.8,-8.5 -8.5,-8.5c-4.7,0 -8.5,3.8 -8.5,8.5v1.5c-2,-0.1 -3.7,-0.4 -5.2,-0.8" fill="none" stroke="#ffffff" stroke-width="3" stroke-linecap="round" stroke-linejoin="round"></path></g></g></svg>